<svg width="70" height="80" viewBox="0 0 70 80" fill="none" xmlns="http://www.w3.org/2000/svg">
<path d="M70.0002 0C62.9209 0.55625 13.1853 5.96875 9.70855 44.9391C9.28609 49.1047 9.04684 53.2891 8.88961 57.4766L33.3445 29.5563C34.199 28.5797 35.5867 28.5797 36.4412 29.5563C37.2957 30.5328 37.2957 32.1156 36.4412 33.0922L0.962656 73.5984C-0.319766 75.0625 -0.319766 77.4375 0.962656 78.9016C2.24508 80.3656 4.32457 80.3656 5.60836 78.9016L13.4191 69.9844C19.1736 69.9625 24.924 69.5891 30.6402 68.8344C37.9519 67.9844 43.9046 64.6984 48.7664 60H34.9646L55.0336 52.3625C56.5716 50.0359 57.9552 47.5641 59.1966 45H48.1033L62.6693 36.6859C68.3992 20.7594 69.7527 4.10313 70.0002 0Z" fill="black"/>
</svg>
